<svg width="1500" height="764" viewBox="0 0 1500 764" fill="none" xmlns="http://www.w3.org/2000/svg">
<g clip-path="url(#clip0_15_488)">
<g clip-path="url(#clip1_15_488)">
<g clip-path="url(#clip2_15_488)">
<g clip-path="url(#clip3_15_488)">
<g clip-path="url(#clip4_15_488)">
<g clip-path="url(#clip5_15_488)">
<path d="M30.0108 636.92H0.312561V475.334H78.4165L75.1426 497.549H30.0108V546.89H69.2965V569.105H30.0108V636.92ZM120.041 640.428C111.622 640.428 104.95 637.809 100.024 632.57C95.1285 627.363 92.6809 620.395 92.6809 611.665V463.642L121.444 460.602V610.496C121.444 612.522 121.911 614.159 122.847 615.406C123.782 616.653 125.185 617.277 127.056 617.277C128.147 617.277 129.192 617.121 130.19 616.809C131.218 616.498 131.889 616.342 132.201 616.342L137.813 635.985C132.512 638.947 126.588 640.428 120.041 640.428ZM196.04 509.943C211.63 509.943 223.743 515.399 232.379 526.312C241.047 537.224 245.381 553.438 245.381 574.951C245.381 595.53 241.016 611.587 232.286 623.123C223.556 634.659 211.474 640.428 196.04 640.428C180.606 640.428 168.524 634.769 159.794 623.451C151.064 612.164 146.699 595.997 146.699 574.951C146.699 554.061 151.064 538.004 159.794 526.779C168.524 515.555 180.606 509.943 196.04 509.943ZM196.04 531.69C189.336 531.69 184.426 534.995 181.308 541.605C178.19 548.246 176.631 559.362 176.631 574.951C176.631 590.697 178.19 601.875 181.308 608.484C184.426 615.126 189.336 618.446 196.04 618.446C202.744 618.446 207.654 615.126 210.772 608.484C213.89 601.875 215.449 590.697 215.449 574.951C215.449 559.206 213.89 548.059 210.772 541.512C207.654 534.964 202.744 531.69 196.04 531.69ZM310.577 509.943C326.166 509.943 338.295 515.399 346.963 526.312C355.6 537.224 359.918 553.438 359.918 574.951C359.918 595.53 355.553 611.587 346.823 623.123C338.092 634.659 326.01 640.428 310.577 640.428C295.143 640.428 283.061 634.769 274.331 623.451C265.601 612.164 261.236 595.997 261.236 574.951C261.236 554.061 265.601 538.004 274.331 526.779C283.061 515.555 295.143 509.943 310.577 509.943ZM310.577 531.69C303.873 531.69 298.963 534.995 295.845 541.605C292.727 548.246 291.168 559.362 291.168 574.951C291.168 590.697 292.727 601.875 295.845 608.484C298.963 615.126 303.873 618.446 310.577 618.446C317.28 618.446 322.191 615.126 325.309 608.484C328.427 601.875 329.986 590.697 329.986 574.951C329.986 559.206 328.427 548.059 325.309 541.512C322.191 534.964 317.28 531.69 310.577 531.69ZM441.763 460.602L470.526 463.642V636.92H445.037L443.634 622.655C436.307 634.504 426.875 640.428 415.339 640.428C402.555 640.428 392.781 634.691 386.015 623.217C379.218 611.774 375.819 595.763 375.819 575.185C375.819 562.09 377.581 550.585 381.104 540.67C384.596 530.786 389.46 523.194 395.696 517.893C401.932 512.593 409.103 509.943 417.21 509.943C427.187 509.943 435.372 514.074 441.763 522.336V460.602ZM423.523 618.68C427.109 618.68 430.336 617.433 433.205 614.939C436.104 612.444 438.957 608.859 441.763 604.182V544.084C436.775 535.665 431.084 531.456 424.693 531.456C412.065 531.456 405.751 545.955 405.751 574.951C405.751 590.697 407.31 601.921 410.428 608.625C413.546 615.328 417.911 618.68 423.523 618.68ZM555.178 472.06C564.064 472.06 572.014 473.65 579.03 476.83C586.045 480.042 592.671 484.687 598.906 490.767L583.94 506.201C579.108 501.992 574.587 498.983 570.377 497.175C566.168 495.398 561.413 494.509 556.113 494.509C545.824 494.509 537.748 499.108 531.887 508.306C526.056 517.504 523.141 533.405 523.141 556.01C523.141 571.911 524.185 584.336 526.274 593.285C528.395 602.264 531.513 608.547 535.628 612.132C539.775 615.718 545.2 617.511 551.904 617.511C558.919 617.511 565.311 615.562 571.079 611.665V567.936H552.839L549.799 545.721H599.374V624.76C592.671 629.593 585.219 633.365 577.019 636.078C568.85 638.822 560.556 640.194 552.138 640.194C532.027 640.194 516.983 633.365 507.006 619.709C497.028 606.084 492.04 584.851 492.04 556.01C492.04 537.302 494.799 521.666 500.318 509.101C505.868 496.567 513.397 487.26 522.907 481.18C532.417 475.1 543.174 472.06 555.178 472.06ZM707.831 513.216V636.92H682.856L681.407 621.252C677.509 627.644 673.16 632.43 668.358 635.61C663.494 638.822 657.866 640.428 651.475 640.428C642.464 640.428 635.339 637.232 630.101 630.84C624.863 624.448 622.244 616.108 622.244 605.819V513.216H651.007V604.182C651.007 613.847 654.281 618.68 660.828 618.68C664.601 618.68 667.953 617.23 670.884 614.331C673.877 611.462 676.605 607.378 679.068 602.077V513.216H707.831ZM813.528 606.988C813.528 611.041 814.074 614.034 815.165 615.968C816.257 617.932 818.049 619.538 820.544 620.785L814.698 639.96C808.306 639.18 803.208 637.466 799.404 634.815C795.569 632.165 792.716 628.112 790.846 622.655C783.674 634.504 773.619 640.428 760.68 640.428C750.391 640.428 742.206 636.951 736.126 629.998C730.046 623.076 727.006 613.847 727.006 602.311C727.006 588.904 731.184 578.693 739.54 571.677C747.865 564.662 759.978 561.154 775.88 561.154H785.467V552.502C785.467 544.707 784.111 539.204 781.398 535.993C778.654 532.813 774.243 531.222 768.163 531.222C760.836 531.222 751.716 533.249 740.803 537.302L734.255 518.595C740.491 515.789 746.961 513.637 753.664 512.141C760.368 510.675 766.76 509.943 772.84 509.943C799.965 509.943 813.528 523.661 813.528 551.099V606.988ZM768.397 619.615C775.88 619.615 781.57 614.471 785.467 604.182V578.225H778.686C770.735 578.225 764.936 580.018 761.288 583.603C757.609 587.189 755.769 592.723 755.769 600.206C755.769 606.598 756.86 611.431 759.043 614.705C761.225 617.979 764.343 619.615 768.397 619.615ZM895.14 510.176C898.726 510.176 901.921 510.722 904.728 511.813L900.051 539.407C896.933 538.628 894.049 538.238 891.398 538.238C885.474 538.238 880.798 540.81 877.368 545.955C873.938 551.099 871.288 558.738 869.417 568.871V636.92H840.654V513.216H865.676L867.78 534.73C873.548 518.361 882.668 510.176 895.14 510.176ZM978.622 460.602L1007.39 463.642V636.92H981.896L980.493 622.655C973.166 634.504 963.734 640.428 952.198 640.428C939.414 640.428 929.624 634.691 922.827 623.217C916.061 611.774 912.678 595.763 912.678 575.185C912.678 562.09 914.424 550.585 917.916 540.67C921.44 530.786 926.319 523.194 932.555 517.893C938.791 512.593 945.962 509.943 954.069 509.943C964.046 509.943 972.231 514.074 978.622 522.336V460.602ZM960.382 618.68C963.968 618.68 967.195 617.433 970.064 614.939C972.963 612.444 975.816 608.859 978.622 604.182V544.084C973.634 535.665 967.943 531.456 961.552 531.456C948.924 531.456 942.61 545.955 942.61 574.951C942.61 590.697 944.169 601.921 947.287 608.625C950.405 615.328 954.77 618.68 960.382 618.68ZM1183.42 636.92H1153.26L1145.31 599.037H1103.68L1095.97 636.92H1066.27L1106.96 475.334H1142.97L1183.42 636.92ZM1124.49 498.017L1108.36 576.588H1140.86L1124.49 498.017ZM1222.47 640.428C1214.06 640.428 1207.4 637.809 1202.5 632.57C1197.58 627.363 1195.12 620.395 1195.12 611.665V463.642L1223.88 460.602V610.496C1223.88 612.522 1224.35 614.159 1225.28 615.406C1226.22 616.653 1227.62 617.277 1229.49 617.277C1230.58 617.277 1231.64 617.121 1232.67 616.809C1233.67 616.498 1234.32 616.342 1234.63 616.342L1240.25 635.985C1234.95 638.947 1229.02 640.428 1222.47 640.428ZM1342.67 572.145C1342.67 573.548 1342.44 577.524 1341.97 584.071H1278.13C1278.75 596.855 1280.97 605.772 1284.77 610.823C1288.61 615.905 1294.03 618.446 1301.05 618.446C1305.88 618.446 1310.24 617.62 1314.14 615.968C1318.04 614.346 1322.25 611.743 1326.77 608.157L1338.7 624.526C1327.78 635.127 1314.69 640.428 1299.41 640.428C1283.2 640.428 1270.76 634.815 1262.09 623.591C1253.45 612.366 1249.13 596.543 1249.13 576.12C1249.13 555.698 1253.26 539.563 1261.53 527.715C1269.79 515.867 1281.48 509.943 1296.6 509.943C1311.1 509.943 1322.4 515.196 1330.51 525.704C1338.62 536.242 1342.67 551.723 1342.67 572.145ZM1314.61 565.364V563.727C1314.61 552.035 1313.21 543.491 1310.4 538.097C1307.59 532.735 1303.07 530.053 1296.84 530.053C1291.07 530.053 1286.66 532.657 1283.6 537.864C1280.58 543.102 1278.75 552.268 1278.13 565.364H1314.61ZM1417.22 510.176C1420.81 510.176 1424 510.722 1426.81 511.813L1422.13 539.407C1419.01 538.628 1416.13 538.238 1413.48 538.238C1407.55 538.238 1402.88 540.81 1399.45 545.955C1396.02 551.099 1393.37 558.738 1391.5 568.871V636.92H1362.73V513.216H1387.76L1389.86 534.73C1395.63 518.361 1404.75 510.176 1417.22 510.176ZM1492.28 613.536L1502.34 631.308C1494.7 637.388 1485.74 640.428 1475.45 640.428C1464.69 640.428 1456.51 637.341 1450.89 631.167C1445.28 625.025 1442.48 616.653 1442.48 606.053V534.029H1427.98V513.216H1442.48V485.857L1471.24 482.349V513.216H1494.62L1491.82 534.029H1471.24V606.053C1471.24 613.536 1474.43 617.277 1480.83 617.277C1482.85 617.277 1484.65 616.996 1486.2 616.435C1487.76 615.905 1489.79 614.939 1492.28 613.536Z" fill="#50A060"/>
</g>
</g>
<g clip-path="url(#clip6_15_488)">
<g clip-path="url(#clip7_15_488)">
<path d="M18.4036 689.862C21.5772 689.862 24.3805 690.418 26.8136 691.528C29.2467 692.639 31.4946 694.305 33.5575 696.527L28.8764 701.922C27.2367 700.441 25.6394 699.33 24.0843 698.59C22.5187 697.849 20.8631 697.479 19.1177 697.479C17.1077 697.479 15.5209 698.098 14.3573 699.335C13.1937 700.584 12.6118 702.213 12.6118 704.223C12.6118 706.233 13.2201 707.872 14.4366 709.142C15.6532 710.411 18.0334 711.733 21.5772 713.109C26.126 714.96 29.4741 717.129 31.6216 719.615C33.7584 722.101 34.8269 725.618 34.8269 730.167C34.8269 733.287 34.1128 736.128 32.6847 738.688C31.2566 741.258 29.2096 743.284 26.5438 744.765C23.8675 746.246 20.7573 746.987 17.2135 746.987C13.5639 746.987 10.3903 746.336 7.69278 745.035C4.99524 743.744 2.53571 741.909 0.314209 739.529L5.39194 733.975C7.29608 735.668 9.12089 736.963 10.8664 737.863C12.6118 738.762 14.516 739.211 16.5788 739.211C19.0119 739.211 20.9055 738.455 22.2595 736.942C23.603 735.44 24.2747 733.393 24.2747 730.801C24.2747 728.527 23.6823 726.66 22.4975 725.2C21.3021 723.751 19.0912 722.418 15.8647 721.201C10.9986 719.244 7.49708 716.996 5.3602 714.457C3.21274 711.919 2.13902 708.745 2.13902 704.937C2.13902 702.028 2.84249 699.436 4.24945 697.161C5.64582 694.887 7.587 693.105 10.073 691.814C12.5589 690.513 15.3358 689.862 18.4036 689.862ZM67.9908 735.641C67.9908 737.016 68.1759 738.032 68.5462 738.688C68.9164 739.354 69.5247 739.899 70.371 740.322L68.3875 746.828C66.2189 746.564 64.484 745.982 63.1828 745.083C61.8922 744.183 60.9296 742.808 60.2949 740.957C57.8618 744.977 54.4502 746.987 50.0601 746.987C46.5691 746.987 43.7922 745.807 41.7294 743.448C39.6666 741.1 38.6352 737.968 38.6352 734.054C38.6352 729.506 40.0474 726.041 42.8719 723.661C45.707 721.281 49.8221 720.091 55.2171 720.091H58.4701V717.155C58.4701 714.51 58.0046 712.643 57.0737 711.554C56.1533 710.475 54.6618 709.935 52.5989 709.935C50.113 709.935 47.0187 710.623 43.3162 711.998L41.0947 705.651C43.2104 704.699 45.4055 703.969 47.6799 703.461C49.9543 702.964 52.1229 702.715 54.1857 702.715C63.3891 702.715 67.9908 707.37 67.9908 716.679V735.641ZM52.6783 739.925C55.2171 739.925 57.1477 738.18 58.4701 734.689V725.882H56.1692C53.4717 725.882 51.4988 726.491 50.2505 727.707C49.0128 728.924 48.3939 730.801 48.3939 733.34C48.3939 735.509 48.7642 737.149 49.5047 738.259C50.2452 739.37 51.3031 739.925 52.6783 739.925ZM92.586 693.353C91.105 693.353 90.0049 693.75 89.2855 694.543C88.5767 695.337 88.2224 696.553 88.2224 698.193V703.826H96.2356L95.1249 710.887H88.2224V745.797H78.4636V710.887H73.2272V703.826H78.4636V698.51C78.4636 694.702 79.5744 691.661 81.7959 689.386C84.0174 687.112 87.191 685.975 91.3166 685.975C94.5431 685.975 97.6638 686.768 100.679 688.355L97.9811 694.702C96.1299 693.803 94.3315 693.353 92.586 693.353ZM130.574 723.82C130.574 724.296 130.494 725.644 130.336 727.866H108.676C108.888 732.203 109.644 735.229 110.945 736.942C112.236 738.667 114.071 739.529 116.451 739.529C118.091 739.529 119.572 739.248 120.894 738.688C122.217 738.138 123.645 737.254 125.179 736.038L129.225 741.592C125.522 745.188 121.079 746.987 115.896 746.987C110.395 746.987 106.18 745.083 103.249 741.274C100.308 737.466 98.838 732.097 98.838 725.168C98.838 718.239 100.24 712.765 103.043 708.745C105.846 704.725 109.813 702.715 114.944 702.715C119.863 702.715 123.698 704.498 126.448 708.063C129.199 711.638 130.574 716.891 130.574 723.82ZM121.053 721.519V720.963C121.053 716.996 120.577 714.098 119.625 712.268C118.673 710.448 117.139 709.538 115.023 709.538C113.066 709.538 111.575 710.422 110.548 712.188C109.512 713.966 108.888 717.076 108.676 721.519H121.053ZM165.88 698.431L168.339 705.968C167.229 706.497 165.896 706.867 164.341 707.079C162.775 707.29 160.829 707.396 158.501 707.396C160.723 708.454 162.378 709.866 163.468 711.633C164.547 713.41 165.086 715.595 165.086 718.186C165.086 722.418 163.791 725.829 161.199 728.421C158.607 731.013 155.09 732.309 150.647 732.309C149.324 732.309 147.976 732.097 146.6 731.674C145.648 732.468 145.172 733.552 145.172 734.927C145.172 735.985 145.463 736.778 146.045 737.307C146.627 737.836 147.711 738.101 149.298 738.101H153.741C157.972 738.101 161.331 739.196 163.817 741.385C166.303 743.586 167.546 746.378 167.546 749.764C167.546 753.783 166.002 756.999 162.913 759.411C159.813 761.813 155.407 763.013 149.695 763.013C143.665 763.013 139.449 761.903 137.048 759.681C134.636 757.459 133.43 754.207 133.43 749.922H142.078C142.078 752.197 142.607 753.81 143.665 754.762C144.723 755.714 146.759 756.19 149.774 756.19C152.683 756.19 154.746 755.688 155.962 754.683C157.179 753.678 157.787 752.25 157.787 750.398C157.787 748.6 157.285 747.278 156.28 746.431C155.275 745.585 153.714 745.162 151.599 745.162H148.584C144.564 745.162 141.628 744.448 139.777 743.02C137.926 741.592 137 739.635 137 737.149C137 735.72 137.386 734.356 138.159 733.055C138.92 731.764 139.962 730.616 141.285 729.611C139.116 728.236 137.529 726.596 136.524 724.692C135.519 722.788 135.017 720.461 135.017 717.71C135.017 713.109 136.392 709.47 139.142 706.793C141.893 704.127 145.595 702.795 150.25 702.795C153.688 702.795 156.534 702.424 158.787 701.684C161.03 700.943 163.394 699.859 165.88 698.431ZM150.25 709.3C148.399 709.3 146.997 709.962 146.045 711.284C145.093 712.606 144.617 714.696 144.617 717.552C144.617 720.249 145.093 722.323 146.045 723.772C146.997 725.232 148.372 725.962 150.171 725.962C152.022 725.962 153.397 725.311 154.296 724.01C155.195 722.719 155.645 720.54 155.645 717.472C155.645 714.616 155.211 712.537 154.344 711.236C153.466 709.946 152.101 709.3 150.25 709.3ZM201.503 703.826V745.797H193.014L192.538 740.481C191.216 742.649 189.735 744.273 188.095 745.352C186.455 746.442 184.551 746.987 182.382 746.987C179.315 746.987 176.892 745.902 175.115 743.734C173.348 741.565 172.465 738.735 172.465 735.244V703.826H182.224V734.689C182.224 737.968 183.335 739.608 185.556 739.608C186.825 739.608 187.963 739.116 188.968 738.132C189.973 737.159 190.898 735.773 191.745 733.975V703.826H201.503ZM237.365 735.641C237.365 737.016 237.55 738.032 237.92 738.688C238.29 739.354 238.899 739.899 239.745 740.322L237.761 746.828C235.593 746.564 233.858 745.982 232.557 745.083C231.266 744.183 230.304 742.808 229.669 740.957C227.236 744.977 223.824 746.987 219.434 746.987C215.943 746.987 213.166 745.807 211.103 743.448C209.041 741.1 208.009 737.968 208.009 734.054C208.009 729.506 209.421 726.041 212.246 723.661C215.081 721.281 219.196 720.091 224.591 720.091H227.844V717.155C227.844 714.51 227.379 712.643 226.448 711.554C225.527 710.475 224.036 709.935 221.973 709.935C219.487 709.935 216.393 710.623 212.69 711.998L210.469 705.651C212.584 704.699 214.779 703.969 217.054 703.461C219.328 702.964 221.497 702.715 223.56 702.715C232.763 702.715 237.365 707.37 237.365 716.679V735.641ZM222.052 739.925C224.591 739.925 226.522 738.18 227.844 734.689V725.882H225.543C222.846 725.882 220.873 726.491 219.624 727.707C218.387 728.924 217.768 730.801 217.768 733.34C217.768 735.509 218.138 737.149 218.879 738.259C219.619 739.37 220.677 739.925 222.052 739.925ZM265.038 702.795C266.255 702.795 267.339 702.98 268.291 703.35L266.704 712.712C265.647 712.448 264.668 712.315 263.769 712.315C261.759 712.315 260.172 713.188 259.009 714.934C257.845 716.679 256.946 719.271 256.311 722.709V745.797H246.552V703.826H255.042L255.756 711.125C257.713 705.571 260.807 702.795 265.038 702.795ZM293.363 685.975L303.121 687.006V745.797H294.473L293.997 740.957C291.511 744.977 288.311 746.987 284.397 746.987C280.06 746.987 276.744 745.04 274.448 741.147C272.142 737.265 270.989 731.833 270.989 724.851C270.989 720.408 271.586 716.504 272.782 713.14C273.967 709.787 275.617 707.211 277.733 705.413C279.848 703.614 282.281 702.715 285.032 702.715C288.417 702.715 291.194 704.117 293.363 706.92V685.975ZM287.174 739.608C288.391 739.608 289.491 739.185 290.475 738.339C291.448 737.492 292.41 736.276 293.363 734.689V714.299C291.67 711.443 289.739 710.014 287.571 710.014C283.286 710.014 281.144 714.934 281.144 724.772C281.144 730.114 281.673 733.922 282.731 736.197C283.789 738.471 285.27 739.608 287.174 739.608ZM312.166 703.826H321.925V745.797H312.166V703.826ZM317.006 682.88C318.751 682.88 320.163 683.436 321.242 684.547C322.332 685.657 322.877 687.085 322.877 688.831C322.877 690.523 322.332 691.925 321.242 693.036C320.163 694.147 318.751 694.702 317.006 694.702C315.26 694.702 313.843 694.147 312.753 693.036C311.674 691.925 311.135 690.523 311.135 688.831C311.135 687.085 311.674 685.657 312.753 684.547C313.843 683.436 315.26 682.88 317.006 682.88ZM350.566 702.715C353.581 702.715 355.961 703.8 357.707 705.968C359.452 708.137 360.325 711.046 360.325 714.696V745.797H350.566V715.806C350.566 713.796 350.286 712.352 349.725 711.474C349.175 710.607 348.371 710.173 347.313 710.173C345.092 710.173 342.897 712.262 340.728 716.441V745.797H330.969V703.826H339.459L340.173 709.3C341.601 707.079 343.119 705.423 344.727 704.334C346.345 703.255 348.292 702.715 350.566 702.715ZM397.599 698.431L400.058 705.968C398.948 706.497 397.615 706.867 396.06 707.079C394.494 707.29 392.547 707.396 390.22 707.396C392.442 708.454 394.097 709.866 395.187 711.633C396.266 713.41 396.805 715.595 396.805 718.186C396.805 722.418 395.509 725.829 392.918 728.421C390.326 731.013 386.809 732.309 382.366 732.309C381.043 732.309 379.694 732.097 378.319 731.674C377.367 732.468 376.891 733.552 376.891 734.927C376.891 735.985 377.182 736.778 377.764 737.307C378.346 737.836 379.43 738.101 381.017 738.101H385.46C389.691 738.101 393.05 739.196 395.536 741.385C398.022 743.586 399.265 746.378 399.265 749.764C399.265 753.783 397.72 756.999 394.631 759.411C391.532 761.813 387.126 763.013 381.413 763.013C375.384 763.013 371.168 761.903 368.767 759.681C366.355 757.459 365.149 754.207 365.149 749.922H373.797C373.797 752.197 374.326 753.81 375.384 754.762C376.442 755.714 378.478 756.19 381.493 756.19C384.402 756.19 386.465 755.688 387.681 754.683C388.898 753.678 389.506 752.25 389.506 750.398C389.506 748.6 389.004 747.278 387.999 746.431C386.994 745.585 385.433 745.162 383.318 745.162H380.303C376.283 745.162 373.347 744.448 371.496 743.02C369.645 741.592 368.719 739.635 368.719 737.149C368.719 735.72 369.105 734.356 369.878 733.055C370.639 731.764 371.681 730.616 373.004 729.611C370.835 728.236 369.248 726.596 368.243 724.692C367.238 722.788 366.736 720.461 366.736 717.71C366.736 713.109 368.111 709.47 370.861 706.793C373.612 704.127 377.314 702.795 381.969 702.795C385.407 702.795 388.253 702.424 390.506 701.684C392.748 700.943 395.113 699.859 397.599 698.431ZM381.969 709.3C380.118 709.3 378.716 709.962 377.764 711.284C376.812 712.606 376.336 714.696 376.336 717.552C376.336 720.249 376.812 722.323 377.764 723.772C378.716 725.232 380.091 725.962 381.89 725.962C383.741 725.962 385.116 725.311 386.015 724.01C386.914 722.719 387.364 720.54 387.364 717.472C387.364 714.616 386.93 712.537 386.063 711.236C385.185 709.946 383.82 709.3 381.969 709.3ZM437.745 737.863L441.156 743.892C438.564 745.955 435.523 746.987 432.032 746.987C428.382 746.987 425.606 745.939 423.701 743.845C421.797 741.761 420.845 738.92 420.845 735.324V710.887H415.926V703.826H420.845V694.543L430.604 693.353V703.826H438.538L437.586 710.887H430.604V735.324C430.604 737.863 431.688 739.132 433.857 739.132C434.545 739.132 435.153 739.037 435.682 738.846C436.211 738.667 436.898 738.339 437.745 737.863ZM464.799 702.715C467.814 702.715 470.194 703.8 471.94 705.968C473.685 708.137 474.558 711.046 474.558 714.696V745.797H464.799V715.806C464.799 713.796 464.519 712.352 463.958 711.474C463.408 710.607 462.604 710.173 461.546 710.173C459.325 710.173 457.13 712.262 454.961 716.441V745.797H445.202V687.085L454.961 686.054V708.824C456.284 706.762 457.722 705.228 459.277 704.223C460.843 703.218 462.684 702.715 464.799 702.715ZM513.26 723.82C513.26 724.296 513.18 725.644 513.022 727.866H491.362C491.574 732.203 492.33 735.229 493.631 736.942C494.922 738.667 496.757 739.529 499.137 739.529C500.777 739.529 502.258 739.248 503.58 738.688C504.903 738.138 506.331 737.254 507.865 736.038L511.911 741.592C508.209 745.188 503.766 746.987 498.582 746.987C493.081 746.987 488.866 745.083 485.935 741.274C482.995 737.466 481.524 732.097 481.524 725.168C481.524 718.239 482.926 712.765 485.729 708.745C488.532 704.725 492.499 702.715 497.63 702.715C502.549 702.715 506.384 704.498 509.134 708.063C511.885 711.638 513.26 716.891 513.26 723.82ZM503.739 721.519V720.963C503.739 716.996 503.263 714.098 502.311 712.268C501.359 710.448 499.825 709.538 497.709 709.538C495.752 709.538 494.261 710.422 493.235 712.188C492.198 713.966 491.574 717.076 491.362 721.519H503.739ZM554.199 689.862C557.002 689.862 559.472 690.322 561.609 691.243C563.757 692.174 565.835 693.591 567.845 695.495L563.006 701.287C561.63 700.018 560.292 699.076 558.991 698.463C557.701 697.86 556.288 697.558 554.754 697.558C551.581 697.558 549.095 699.145 547.296 702.319C545.498 705.492 544.599 710.808 544.599 718.266C544.599 725.618 545.498 730.891 547.296 734.086C549.095 737.291 551.634 738.894 554.913 738.894C556.553 738.894 557.981 738.561 559.197 737.894C560.414 737.239 561.842 736.223 563.482 734.848L568.321 740.401C566.629 742.306 564.592 743.877 562.212 745.114C559.832 746.363 557.161 746.987 554.199 746.987C548.011 746.987 543.091 744.58 539.442 739.767C535.792 734.954 533.967 727.787 533.967 718.266C533.967 711.972 534.84 706.709 536.586 702.477C538.331 698.246 540.722 695.088 543.758 693.004C546.805 690.91 550.285 689.862 554.199 689.862ZM588.394 702.715C593.684 702.715 597.793 704.567 600.724 708.269C603.665 711.972 605.135 717.472 605.135 724.772C605.135 731.753 603.654 737.201 600.692 741.116C597.73 745.03 593.631 746.987 588.394 746.987C583.158 746.987 579.059 745.067 576.097 741.227C573.135 737.397 571.654 731.912 571.654 724.772C571.654 717.684 573.135 712.236 576.097 708.428C579.059 704.619 583.158 702.715 588.394 702.715ZM588.394 710.094C586.12 710.094 584.454 711.215 583.396 713.458C582.338 715.711 581.809 719.482 581.809 724.772C581.809 730.114 582.338 733.906 583.396 736.149C584.454 738.402 586.12 739.529 588.394 739.529C590.669 739.529 592.335 738.402 593.393 736.149C594.451 733.906 594.979 730.114 594.979 724.772C594.979 719.429 594.451 715.648 593.393 713.426C592.335 711.205 590.669 710.094 588.394 710.094ZM649.867 702.715C652.67 702.715 654.918 703.8 656.61 705.968C658.303 708.137 659.149 711.046 659.149 714.696V745.797H649.549V715.727C649.549 713.717 649.285 712.273 648.756 711.395C648.227 710.528 647.46 710.094 646.455 710.094C644.392 710.094 642.409 712.051 640.504 715.965V745.797H630.984V715.727C630.984 711.972 629.979 710.094 627.969 710.094C625.8 710.094 623.79 712.051 621.939 715.965V745.797H612.339V703.826H620.828L621.463 709.221C624.213 704.884 627.519 702.715 631.38 702.715C633.337 702.715 635.03 703.324 636.458 704.54C637.886 705.757 638.971 707.476 639.711 709.697C642.514 705.043 645.9 702.715 649.867 702.715ZM705.404 702.715C708.208 702.715 710.456 703.8 712.148 705.968C713.841 708.137 714.687 711.046 714.687 714.696V745.797H705.087V715.727C705.087 713.717 704.822 712.273 704.293 711.395C703.765 710.528 702.998 710.094 701.993 710.094C699.93 710.094 697.946 712.051 696.042 715.965V745.797H686.521V715.727C686.521 711.972 685.516 710.094 683.507 710.094C681.338 710.094 679.328 712.051 677.477 715.965V745.797H667.877V703.826H676.366L677.001 709.221C679.751 704.884 683.057 702.715 686.918 702.715C688.875 702.715 690.568 703.324 691.996 704.54C693.424 705.757 694.508 707.476 695.249 709.697C698.052 705.043 701.437 702.715 705.404 702.715ZM752.215 703.826V745.797H743.725L743.249 740.481C741.927 742.649 740.446 744.273 738.806 745.352C737.166 746.442 735.262 746.987 733.094 746.987C730.026 746.987 727.603 745.902 725.826 743.734C724.06 741.565 723.176 738.735 723.176 735.244V703.826H732.935V734.689C732.935 737.968 734.046 739.608 736.267 739.608C737.537 739.608 738.674 739.116 739.679 738.132C740.684 737.159 741.609 735.773 742.456 733.975V703.826H752.215ZM780.856 702.715C783.871 702.715 786.251 703.8 787.997 705.968C789.742 708.137 790.615 711.046 790.615 714.696V745.797H780.856V715.806C780.856 713.796 780.576 712.352 780.015 711.474C779.465 710.607 778.661 710.173 777.603 710.173C775.382 710.173 773.187 712.262 771.018 716.441V745.797H761.259V703.826H769.749L770.463 709.3C771.891 707.079 773.409 705.423 775.017 704.334C776.635 703.255 778.582 702.715 780.856 702.715ZM799.406 703.826H809.164V745.797H799.406V703.826ZM804.245 682.88C805.991 682.88 807.408 683.436 808.498 684.547C809.577 685.657 810.116 687.085 810.116 688.831C810.116 690.523 809.577 691.925 808.498 693.036C807.408 694.147 805.991 694.702 804.245 694.702C802.5 694.702 801.088 694.147 800.009 693.036C798.919 691.925 798.374 690.523 798.374 688.831C798.374 687.085 798.919 685.657 800.009 684.547C801.088 683.436 802.5 682.88 804.245 682.88ZM835.902 737.863L839.313 743.892C836.722 745.955 833.68 746.987 830.189 746.987C826.54 746.987 823.763 745.939 821.859 743.845C819.955 741.761 819.003 738.92 819.003 735.324V710.887H814.083V703.826H819.003V694.543L828.761 693.353V703.826H836.695L835.743 710.887H828.761V735.324C828.761 737.863 829.846 739.132 832.014 739.132C832.702 739.132 833.31 739.037 833.839 738.846C834.368 738.667 835.056 738.339 835.902 737.863ZM872.953 703.826L861.846 745.955C860.471 751.033 858.249 755.026 855.181 757.936C852.114 760.845 848.014 762.537 842.884 763.013L841.773 756.111C845.105 755.423 847.602 754.323 849.263 752.81C850.934 751.308 852.246 748.97 853.198 745.797H849.548L838.917 703.826H848.834L855.816 739.291L863.274 703.826H872.953ZM881.348 734.61C883.04 734.61 884.431 735.176 885.521 736.308C886.6 737.45 887.139 738.894 887.139 740.64C887.139 741.38 887.023 742.158 886.79 742.972C886.547 743.797 886.24 744.696 885.87 745.67C885.5 746.653 885.262 747.33 885.156 747.701L880.951 759.364H875.476L878.333 745.955C876.428 744.58 875.476 742.835 875.476 740.719C875.476 738.973 876.032 737.519 877.143 736.355C878.253 735.192 879.655 734.61 881.348 734.61ZM928.158 689.862C934.611 689.862 939.583 692.216 943.074 696.923C946.565 701.631 948.31 708.771 948.31 718.345C948.31 727.813 946.565 734.954 943.074 739.767C939.583 744.58 934.611 746.987 928.158 746.987C921.758 746.987 916.796 744.606 913.274 739.846C909.762 735.086 908.006 727.945 908.006 718.424C908.006 709.01 909.762 701.895 913.274 697.082C916.796 692.269 921.758 689.862 928.158 689.862ZM928.158 697.479C924.931 697.479 922.535 699.092 920.97 702.319C919.415 705.545 918.637 710.914 918.637 718.424C918.637 725.988 919.43 731.341 921.017 734.483C922.604 737.635 924.984 739.211 928.158 739.211C931.437 739.211 933.854 737.651 935.409 734.53C936.975 731.41 937.758 726.015 937.758 718.345C937.758 710.834 936.964 705.476 935.378 702.271C933.791 699.076 931.384 697.479 928.158 697.479ZM975.206 702.715C978.221 702.715 980.601 703.8 982.347 705.968C984.092 708.137 984.965 711.046 984.965 714.696V745.797H975.206V715.806C975.206 713.796 974.926 712.352 974.365 711.474C973.815 710.607 973.011 710.173 971.953 710.173C969.732 710.173 967.537 712.262 965.368 716.441V745.797H955.609V703.826H964.099L964.813 709.3C966.241 707.079 967.759 705.423 969.367 704.334C970.985 703.255 972.932 702.715 975.206 702.715ZM1023.67 723.82C1023.67 724.296 1023.59 725.644 1023.43 727.866H1001.77C1001.98 732.203 1002.74 735.229 1004.04 736.942C1005.33 738.667 1007.16 739.529 1009.54 739.529C1011.18 739.529 1012.66 739.248 1013.99 738.688C1015.31 738.138 1016.74 737.254 1018.27 736.038L1022.32 741.592C1018.62 745.188 1014.17 746.987 1008.99 746.987C1003.49 746.987 999.272 745.083 996.342 741.274C993.401 737.466 991.931 732.097 991.931 725.168C991.931 718.239 993.333 712.765 996.136 708.745C998.939 704.725 1002.91 702.715 1008.04 702.715C1012.96 702.715 1016.79 704.498 1019.54 708.063C1022.29 711.638 1023.67 716.891 1023.67 723.82ZM1014.15 721.519V720.963C1014.15 716.996 1013.67 714.098 1012.72 712.268C1011.77 710.448 1010.23 709.538 1008.12 709.538C1006.16 709.538 1004.67 710.422 1003.64 712.188C1002.6 713.966 1001.98 717.076 1001.77 721.519H1014.15ZM1081.82 745.797H1070.95L1061.27 723.661H1060.32H1056.43V745.797H1046.36V690.973H1059.29C1072.51 690.973 1079.12 696.342 1079.12 707.079C1079.12 710.411 1078.38 713.363 1076.9 715.933C1075.42 718.493 1073.2 720.434 1070.24 721.757L1081.82 745.797ZM1059.77 716.362C1062.89 716.362 1065.15 715.621 1066.54 714.14C1067.95 712.659 1068.65 710.305 1068.65 707.079C1068.65 704.064 1067.92 701.853 1066.46 700.446C1065.01 699.05 1062.62 698.352 1059.29 698.352H1056.43V716.362H1059.77ZM1086.66 703.826H1096.42V745.797H1086.66V703.826ZM1091.5 682.88C1093.25 682.88 1094.66 683.436 1095.74 684.547C1096.83 685.657 1097.37 687.085 1097.37 688.831C1097.37 690.523 1096.83 691.925 1095.74 693.036C1094.66 694.147 1093.25 694.702 1091.5 694.702C1089.76 694.702 1088.34 694.147 1087.25 693.036C1086.17 691.925 1085.63 690.523 1085.63 688.831C1085.63 687.085 1086.17 685.657 1087.25 684.547C1088.34 683.436 1089.76 682.88 1091.5 682.88ZM1125.13 703.826H1134.73L1123.78 745.797H1112.27L1101.01 703.826H1111.08L1117.99 737.942L1125.13 703.826ZM1169.24 723.82C1169.24 724.296 1169.16 725.644 1169 727.866H1147.34C1147.55 732.203 1148.31 735.229 1149.61 736.942C1150.9 738.667 1152.74 739.529 1155.12 739.529C1156.76 739.529 1158.24 739.248 1159.56 738.688C1160.88 738.138 1162.31 737.254 1163.84 736.038L1167.89 741.592C1164.19 745.188 1159.74 746.987 1154.56 746.987C1149.06 746.987 1144.84 745.083 1141.91 741.274C1138.97 737.466 1137.5 732.097 1137.5 725.168C1137.5 718.239 1138.9 712.765 1141.71 708.745C1144.51 704.725 1148.48 702.715 1153.61 702.715C1158.53 702.715 1162.36 704.498 1165.11 708.063C1167.86 711.638 1169.24 716.891 1169.24 723.82ZM1159.72 721.519V720.963C1159.72 716.996 1159.24 714.098 1158.29 712.268C1157.34 710.448 1155.8 709.538 1153.69 709.538C1151.73 709.538 1150.24 710.422 1149.21 712.188C1148.18 713.966 1147.55 717.076 1147.34 721.519H1159.72ZM1194.55 702.795C1195.76 702.795 1196.85 702.98 1197.8 703.35L1196.21 712.712C1195.16 712.448 1194.18 712.315 1193.28 712.315C1191.27 712.315 1189.68 713.188 1188.52 714.934C1187.35 716.679 1186.46 719.271 1185.82 722.709V745.797H1176.06V703.826H1184.55L1185.27 711.125C1187.22 705.571 1190.32 702.795 1194.55 702.795ZM1244.75 735.641C1244.75 737.016 1244.94 738.032 1245.31 738.688C1245.68 739.354 1246.29 739.899 1247.13 740.322L1245.15 746.828C1242.98 746.564 1241.25 745.982 1239.96 745.083C1238.66 744.183 1237.69 742.808 1237.06 740.957C1234.63 744.977 1231.21 746.987 1226.82 746.987C1223.33 746.987 1220.56 745.807 1218.49 743.448C1216.43 741.1 1215.4 737.968 1215.4 734.054C1215.4 729.506 1216.82 726.041 1219.65 723.661C1222.48 721.281 1226.59 720.091 1231.98 720.091H1235.23V717.155C1235.23 714.51 1234.77 712.643 1233.85 711.554C1232.92 710.475 1231.43 709.935 1229.36 709.935C1226.88 709.935 1223.78 710.623 1220.08 711.998L1217.86 705.651C1219.97 704.699 1222.17 703.969 1224.44 703.461C1226.72 702.964 1228.89 702.715 1230.95 702.715C1240.15 702.715 1244.75 707.37 1244.75 716.679V735.641ZM1229.44 739.925C1231.98 739.925 1233.91 738.18 1235.23 734.689V725.882H1232.93C1230.24 725.882 1228.27 726.491 1227.03 727.707C1225.78 728.924 1225.16 730.801 1225.16 733.34C1225.16 735.509 1225.53 737.149 1226.27 738.259C1227.01 739.37 1228.07 739.925 1229.44 739.925ZM1271.65 737.863L1275.06 743.892C1272.47 745.955 1269.43 746.987 1265.94 746.987C1262.29 746.987 1259.51 745.939 1257.61 743.845C1255.7 741.761 1254.75 738.92 1254.75 735.324V710.887H1249.83V703.826H1254.75V694.543L1264.51 693.353V703.826H1272.44L1271.49 710.887H1264.51V735.324C1264.51 737.863 1265.59 739.132 1267.76 739.132C1268.45 739.132 1269.06 739.037 1269.59 738.846C1270.12 738.667 1270.8 738.339 1271.65 737.863ZM1321.55 735.641C1321.55 737.016 1321.74 738.032 1322.11 738.688C1322.48 739.354 1323.09 739.899 1323.93 740.322L1321.95 746.828C1319.78 746.564 1318.05 745.982 1316.75 745.083C1315.46 744.183 1314.49 742.808 1313.86 740.957C1311.43 744.977 1308.01 746.987 1303.62 746.987C1300.13 746.987 1297.36 745.807 1295.29 743.448C1293.23 741.1 1292.2 737.968 1292.2 734.054C1292.2 729.506 1293.61 726.041 1296.44 723.661C1299.27 721.281 1303.39 720.091 1308.78 720.091H1312.03V717.155C1312.03 714.51 1311.57 712.643 1310.64 711.554C1309.72 710.475 1308.23 709.935 1306.16 709.935C1303.68 709.935 1300.58 710.623 1296.88 711.998L1294.66 705.651C1296.77 704.699 1298.97 703.969 1301.24 703.461C1303.52 702.964 1305.69 702.715 1307.75 702.715C1316.95 702.715 1321.55 707.37 1321.55 716.679V735.641ZM1306.24 739.925C1308.78 739.925 1310.71 738.18 1312.03 734.689V725.882H1309.73C1307.04 725.882 1305.06 726.491 1303.81 727.707C1302.58 728.924 1301.96 730.801 1301.96 733.34C1301.96 735.509 1302.33 737.149 1303.07 738.259C1303.81 739.37 1304.87 739.925 1306.24 739.925ZM1342.48 690.973H1376.68L1375.57 698.907H1364.3V745.797H1354.23V698.907H1342.48V690.973ZM1381.28 703.826H1391.04V745.797H1381.28V703.826ZM1386.12 682.88C1387.87 682.88 1389.28 683.436 1390.36 684.547C1391.45 685.657 1391.99 687.085 1391.99 688.831C1391.99 690.523 1391.45 691.925 1390.36 693.036C1389.28 694.147 1387.87 694.702 1386.12 694.702C1384.38 694.702 1382.96 694.147 1381.87 693.036C1380.79 691.925 1380.25 690.523 1380.25 688.831C1380.25 687.085 1380.79 685.657 1381.87 684.547C1382.96 683.436 1384.38 682.88 1386.12 682.88ZM1437.61 702.715C1440.42 702.715 1442.66 703.8 1444.36 705.968C1446.05 708.137 1446.9 711.046 1446.9 714.696V745.797H1437.3V715.727C1437.3 713.717 1437.03 712.273 1436.5 711.395C1435.97 710.528 1435.21 710.094 1434.2 710.094C1432.14 710.094 1430.15 712.051 1428.25 715.965V745.797H1418.73V715.727C1418.73 711.972 1417.72 710.094 1415.71 710.094C1413.55 710.094 1411.54 712.051 1409.68 715.965V745.797H1400.08V703.826H1408.57L1409.21 709.221C1411.96 704.884 1415.27 702.715 1419.13 702.715C1421.08 702.715 1422.78 703.324 1424.2 704.54C1425.63 705.757 1426.72 707.476 1427.46 709.697C1430.26 705.043 1433.65 702.715 1437.61 702.715ZM1485.52 723.82C1485.52 724.296 1485.44 725.644 1485.28 727.866H1463.62C1463.83 732.203 1464.59 735.229 1465.89 736.942C1467.18 738.667 1469.02 739.529 1471.4 739.529C1473.03 739.529 1474.52 739.248 1475.84 738.688C1477.16 738.138 1478.59 737.254 1480.12 736.038L1484.17 741.592C1480.47 745.188 1476.02 746.987 1470.84 746.987C1465.34 746.987 1461.12 745.083 1458.19 741.274C1455.25 737.466 1453.78 732.097 1453.78 725.168C1453.78 718.239 1455.18 712.765 1457.99 708.745C1460.79 704.725 1464.76 702.715 1469.89 702.715C1474.81 702.715 1478.64 704.498 1481.39 708.063C1484.14 711.638 1485.52 716.891 1485.52 723.82ZM1476 721.519V720.963C1476 716.996 1475.52 714.098 1474.57 712.268C1473.62 710.448 1472.08 709.538 1469.97 709.538C1468.01 709.538 1466.52 710.422 1465.49 712.188C1464.46 713.966 1463.83 717.076 1463.62 721.519H1476ZM1496.31 734.61C1498.11 734.61 1499.56 735.218 1500.67 736.435C1501.78 737.651 1502.34 739.106 1502.34 740.798C1502.34 742.491 1501.78 743.945 1500.67 745.162C1499.56 746.378 1498.11 746.987 1496.31 746.987C1494.56 746.987 1493.12 746.378 1491.99 745.162C1490.85 743.945 1490.28 742.491 1490.28 740.798C1490.28 739.106 1490.85 737.651 1491.99 736.435C1493.12 735.218 1494.56 734.61 1496.31 734.61Z" fill="#50A060"/>
</g>
</g>
</g>
</g>
<g clip-path="url(#clip8_15_488)">
<path d="M960.292 0.216064H542.359V114.451H960.292V0.216064Z" fill="#50A060" fill-opacity="0.5"/>
<path d="M960.292 139.527H542.36V253.762H960.292V139.527Z" fill="#50A060" fill-opacity="0.75"/>
<path d="M960.292 278.838H542.36V393.073H960.292V278.838Z" fill="#50A060"/>
</g>
</g>
</g>
<defs>
<clipPath id="clip0_15_488">
<rect width="1502.21" height="762.797" fill="white" transform="translate(0.218994 0.216064)"/>
</clipPath>
<clipPath id="clip1_15_488">
<rect width="1502.21" height="762.797" fill="white" transform="translate(0.218994 0.216064)"/>
</clipPath>
<clipPath id="clip2_15_488">
<rect width="1502.21" height="302.411" fill="white" transform="translate(0.218994 460.602)"/>
</clipPath>
<clipPath id="clip3_15_488">
<rect width="1502.21" height="302.411" fill="white" transform="translate(0.218994 460.602)"/>
</clipPath>
<clipPath id="clip4_15_488">
<rect width="1502.21" height="179.826" fill="white" transform="translate(0.218994 460.602)"/>
</clipPath>
<clipPath id="clip5_15_488">
<rect width="1502.21" height="179.826" fill="white" transform="translate(0.218994 460.602)"/>
</clipPath>
<clipPath id="clip6_15_488">
<rect width="1502.21" height="80.1329" fill="white" transform="translate(0.218994 682.88)"/>
</clipPath>
<clipPath id="clip7_15_488">
<rect width="1502.21" height="80.1329" fill="white" transform="translate(0.218994 682.88)"/>
</clipPath>
<clipPath id="clip8_15_488">
<rect width="417.933" height="417.933" fill="white" transform="translate(542.359 0.216064)"/>
</clipPath>
</defs>
</svg>
